<mxfile host="Electron" agent="Mozilla/5.0 (Macintosh; Intel Mac OS X 10_15_7) AppleWebKit/537.36 (KHTML, like Gecko) draw.io/26.0.16 Chrome/132.0.6834.196 Electron/34.2.0 Safari/537.36" version="26.0.16">
  <diagram name="페이지-1" id="Uw8Kz3kJ8P9IHF2IGkrr">
    <mxGraphModel dx="2053" dy="1189" grid="0" gridSize="10" guides="1" tooltips="1" connect="1" arrows="1" fold="1" page="1" pageScale="1" pageWidth="1169" pageHeight="827" math="0" shadow="0">
      <root>
        <mxCell id="0" />
        <mxCell id="1" parent="0" />
        <mxCell id="Dz-6xlP6POjxRSHoRuvK-14" value="" style="rounded=1;whiteSpace=wrap;html=1;fillColor=#fff2cc;strokeColor=#d6b656;opacity=50;arcSize=9;" vertex="1" parent="1">
          <mxGeometry x="617.5" y="130" width="392.5" height="284" as="geometry" />
        </mxCell>
        <mxCell id="Dz-6xlP6POjxRSHoRuvK-9" value="tunl (ip-ip)&lt;br&gt;192.168.1.10" style="edgeStyle=orthogonalEdgeStyle;rounded=0;orthogonalLoop=1;jettySize=auto;html=1;exitX=1;exitY=0.5;exitDx=0;exitDy=0;entryX=0;entryY=0.5;entryDx=0;entryDy=0;endArrow=classic;startFill=1;startArrow=classic;endFill=1;" edge="1" parent="1" source="Dz-6xlP6POjxRSHoRuvK-1" target="Dz-6xlP6POjxRSHoRuvK-4">
          <mxGeometry x="-0.575" y="15" relative="1" as="geometry">
            <Array as="points">
              <mxPoint x="559" y="267" />
              <mxPoint x="559" y="182" />
            </Array>
            <mxPoint as="offset" />
          </mxGeometry>
        </mxCell>
        <mxCell id="Dz-6xlP6POjxRSHoRuvK-1" value="IP: 192.168.1.3&#xa;VIP #1: 192.168.1.10:9200" style="shape=image;verticalLabelPosition=bottom;labelBackgroundColor=default;verticalAlign=top;aspect=fixed;imageAspect=0;image=https://upload.wikimedia.org/wikipedia/commons/c/c9/Lvslogo.png;" vertex="1" parent="1">
          <mxGeometry x="367" y="230" width="75" height="75" as="geometry" />
        </mxCell>
        <mxCell id="Dz-6xlP6POjxRSHoRuvK-18" style="edgeStyle=orthogonalEdgeStyle;rounded=0;orthogonalLoop=1;jettySize=auto;html=1;exitX=1;exitY=0.5;exitDx=0;exitDy=0;entryX=0;entryY=0.5;entryDx=0;entryDy=0;" edge="1" parent="1" source="Dz-6xlP6POjxRSHoRuvK-2" target="Dz-6xlP6POjxRSHoRuvK-1">
          <mxGeometry relative="1" as="geometry">
            <Array as="points">
              <mxPoint x="322" y="182" />
              <mxPoint x="322" y="267" />
            </Array>
          </mxGeometry>
        </mxCell>
        <mxCell id="Dz-6xlP6POjxRSHoRuvK-2" value="192.168.1.21" style="shape=image;verticalLabelPosition=bottom;labelBackgroundColor=default;verticalAlign=top;aspect=fixed;imageAspect=0;image=https://cdn.worldvectorlogo.com/logos/elastic-logstash.svg;" vertex="1" parent="1">
          <mxGeometry x="217" y="152.5" width="60" height="60" as="geometry" />
        </mxCell>
        <mxCell id="Dz-6xlP6POjxRSHoRuvK-17" style="edgeStyle=orthogonalEdgeStyle;rounded=0;orthogonalLoop=1;jettySize=auto;html=1;exitX=1;exitY=0.5;exitDx=0;exitDy=0;entryX=0;entryY=0.5;entryDx=0;entryDy=0;startArrow=classic;startFill=1;" edge="1" parent="1" source="Dz-6xlP6POjxRSHoRuvK-3" target="Dz-6xlP6POjxRSHoRuvK-1">
          <mxGeometry relative="1" as="geometry">
            <Array as="points">
              <mxPoint x="322" y="357" />
              <mxPoint x="322" y="267" />
            </Array>
          </mxGeometry>
        </mxCell>
        <mxCell id="Dz-6xlP6POjxRSHoRuvK-3" value="192.168.1.31" style="shape=image;verticalLabelPosition=bottom;labelBackgroundColor=default;verticalAlign=top;aspect=fixed;imageAspect=0;image=https://img.icons8.com/color/600/kibana.png;" vertex="1" parent="1">
          <mxGeometry x="222" y="332.5" width="50" height="50" as="geometry" />
        </mxCell>
        <mxCell id="Dz-6xlP6POjxRSHoRuvK-19" style="edgeStyle=orthogonalEdgeStyle;rounded=0;orthogonalLoop=1;jettySize=auto;html=1;exitX=1;exitY=0.5;exitDx=0;exitDy=0;entryX=1;entryY=0.5;entryDx=0;entryDy=0;startArrow=classic;startFill=1;" edge="1" parent="1" source="Dz-6xlP6POjxRSHoRuvK-4" target="Dz-6xlP6POjxRSHoRuvK-7">
          <mxGeometry relative="1" as="geometry" />
        </mxCell>
        <mxCell id="Dz-6xlP6POjxRSHoRuvK-4" value="192.168.1.11" style="shape=image;verticalLabelPosition=bottom;labelBackgroundColor=none;verticalAlign=top;aspect=fixed;imageAspect=0;image=https://img.icons8.com/color/512/elasticsearch.png;" vertex="1" parent="1">
          <mxGeometry x="630" y="155" width="55" height="55" as="geometry" />
        </mxCell>
        <mxCell id="Dz-6xlP6POjxRSHoRuvK-10" style="edgeStyle=orthogonalEdgeStyle;rounded=0;orthogonalLoop=1;jettySize=auto;html=1;exitX=0;exitY=0.5;exitDx=0;exitDy=0;entryX=1;entryY=0.5;entryDx=0;entryDy=0;endArrow=classic;startFill=1;startArrow=classic;endFill=1;" edge="1" parent="1" source="Dz-6xlP6POjxRSHoRuvK-7" target="Dz-6xlP6POjxRSHoRuvK-1">
          <mxGeometry relative="1" as="geometry" />
        </mxCell>
        <mxCell id="Dz-6xlP6POjxRSHoRuvK-20" style="edgeStyle=orthogonalEdgeStyle;rounded=0;orthogonalLoop=1;jettySize=auto;html=1;exitX=1;exitY=0.5;exitDx=0;exitDy=0;entryX=1;entryY=0.5;entryDx=0;entryDy=0;startArrow=classic;startFill=1;" edge="1" parent="1" source="Dz-6xlP6POjxRSHoRuvK-7" target="Dz-6xlP6POjxRSHoRuvK-8">
          <mxGeometry relative="1" as="geometry" />
        </mxCell>
        <mxCell id="Dz-6xlP6POjxRSHoRuvK-7" value="192.168.1.12" style="shape=image;verticalLabelPosition=bottom;labelBackgroundColor=none;verticalAlign=top;aspect=fixed;imageAspect=0;image=https://img.icons8.com/color/512/elasticsearch.png;" vertex="1" parent="1">
          <mxGeometry x="630" y="240" width="55" height="55" as="geometry" />
        </mxCell>
        <mxCell id="Dz-6xlP6POjxRSHoRuvK-11" style="edgeStyle=orthogonalEdgeStyle;rounded=0;orthogonalLoop=1;jettySize=auto;html=1;exitX=0;exitY=0.5;exitDx=0;exitDy=0;entryX=1;entryY=0.5;entryDx=0;entryDy=0;endArrow=classic;startFill=1;startArrow=classic;endFill=1;" edge="1" parent="1" source="Dz-6xlP6POjxRSHoRuvK-8" target="Dz-6xlP6POjxRSHoRuvK-1">
          <mxGeometry relative="1" as="geometry">
            <Array as="points">
              <mxPoint x="559" y="358" />
              <mxPoint x="559" y="268" />
            </Array>
          </mxGeometry>
        </mxCell>
        <mxCell id="Dz-6xlP6POjxRSHoRuvK-8" value="192.168.1.13" style="shape=image;verticalLabelPosition=bottom;labelBackgroundColor=none;verticalAlign=top;aspect=fixed;imageAspect=0;image=https://img.icons8.com/color/512/elasticsearch.png;" vertex="1" parent="1">
          <mxGeometry x="630" y="330" width="55" height="55" as="geometry" />
        </mxCell>
        <mxCell id="Dz-6xlP6POjxRSHoRuvK-15" value="ES Cluster&lt;div&gt;elk.cluster.com 9300&lt;/div&gt;" style="text;html=1;align=center;verticalAlign=middle;whiteSpace=wrap;rounded=0;" vertex="1" parent="1">
          <mxGeometry x="627.5" y="130" width="122.5" height="30" as="geometry" />
        </mxCell>
        <mxCell id="Dz-6xlP6POjxRSHoRuvK-16" value="ipvsadm&lt;div&gt;(L3DSR)&lt;/div&gt;" style="text;html=1;align=center;verticalAlign=middle;resizable=0;points=[];autosize=1;strokeColor=none;fillColor=none;" vertex="1" parent="1">
          <mxGeometry x="369.5" y="195" width="70" height="40" as="geometry" />
        </mxCell>
        <mxCell id="Dz-6xlP6POjxRSHoRuvK-24" value="" style="shape=cylinder3;whiteSpace=wrap;html=1;boundedLbl=1;backgroundOutline=1;size=8.590909090908951;" vertex="1" parent="1">
          <mxGeometry x="750" y="142.5" width="254" height="80" as="geometry" />
        </mxCell>
        <mxCell id="Dz-6xlP6POjxRSHoRuvK-23" value="Shard-0" style="shape=card;whiteSpace=wrap;html=1;size=20;fillColor=#dae8fc;strokeColor=#6c8ebf;opacity=50;" vertex="1" parent="1">
          <mxGeometry x="760" y="162.5" width="60" height="50" as="geometry" />
        </mxCell>
        <mxCell id="Dz-6xlP6POjxRSHoRuvK-27" value="" style="shape=cylinder3;whiteSpace=wrap;html=1;boundedLbl=1;backgroundOutline=1;size=8.590909090908951;" vertex="1" parent="1">
          <mxGeometry x="750" y="227.5" width="254" height="80" as="geometry" />
        </mxCell>
        <mxCell id="Dz-6xlP6POjxRSHoRuvK-28" value="Shard-1" style="shape=card;whiteSpace=wrap;html=1;size=20;fillColor=#dae8fc;strokeColor=#6c8ebf;opacity=50;" vertex="1" parent="1">
          <mxGeometry x="760" y="247.5" width="60" height="50" as="geometry" />
        </mxCell>
        <mxCell id="Dz-6xlP6POjxRSHoRuvK-29" value="" style="shape=cylinder3;whiteSpace=wrap;html=1;boundedLbl=1;backgroundOutline=1;size=8.590909090908951;" vertex="1" parent="1">
          <mxGeometry x="750" y="317.5" width="254" height="80" as="geometry" />
        </mxCell>
        <mxCell id="Dz-6xlP6POjxRSHoRuvK-30" value="Shard-2" style="shape=card;whiteSpace=wrap;html=1;size=20;fillColor=#dae8fc;strokeColor=#6c8ebf;opacity=50;" vertex="1" parent="1">
          <mxGeometry x="760" y="337.5" width="60" height="50" as="geometry" />
        </mxCell>
        <mxCell id="Dz-6xlP6POjxRSHoRuvK-32" value="Shard-1" style="shape=card;whiteSpace=wrap;html=1;size=20;fillColor=#fff2cc;strokeColor=#d6b656;opacity=50;" vertex="1" parent="1">
          <mxGeometry x="847" y="162.5" width="60" height="50" as="geometry" />
        </mxCell>
        <mxCell id="Dz-6xlP6POjxRSHoRuvK-33" value="Shard-2" style="shape=card;whiteSpace=wrap;html=1;size=20;fillColor=#fff2cc;strokeColor=#d6b656;opacity=50;" vertex="1" parent="1">
          <mxGeometry x="847" y="247.5" width="60" height="50" as="geometry" />
        </mxCell>
        <mxCell id="Dz-6xlP6POjxRSHoRuvK-34" value="Shard-0" style="shape=card;whiteSpace=wrap;html=1;size=20;fillColor=#fff2cc;strokeColor=#d6b656;opacity=50;" vertex="1" parent="1">
          <mxGeometry x="847" y="337.5" width="60" height="50" as="geometry" />
        </mxCell>
        <mxCell id="Dz-6xlP6POjxRSHoRuvK-35" value="Shard-2" style="shape=card;whiteSpace=wrap;html=1;size=20;fillColor=#fff2cc;strokeColor=#d6b656;opacity=50;" vertex="1" parent="1">
          <mxGeometry x="930" y="162.5" width="60" height="50" as="geometry" />
        </mxCell>
        <mxCell id="Dz-6xlP6POjxRSHoRuvK-36" value="Shard-0" style="shape=card;whiteSpace=wrap;html=1;size=20;fillColor=#fff2cc;strokeColor=#d6b656;opacity=50;" vertex="1" parent="1">
          <mxGeometry x="930" y="247.5" width="60" height="50" as="geometry" />
        </mxCell>
        <mxCell id="Dz-6xlP6POjxRSHoRuvK-37" value="Shard-1" style="shape=card;whiteSpace=wrap;html=1;size=20;fillColor=#fff2cc;strokeColor=#d6b656;opacity=50;" vertex="1" parent="1">
          <mxGeometry x="930" y="337.5" width="60" height="50" as="geometry" />
        </mxCell>
        <mxCell id="Dz-6xlP6POjxRSHoRuvK-40" value="iptables" style="verticalLabelPosition=bottom;sketch=0;aspect=fixed;html=1;verticalAlign=top;strokeColor=none;align=center;outlineConnect=0;shape=mxgraph.citrix.firewall;" vertex="1" parent="1">
          <mxGeometry x="540" y="240" width="37.1" height="46" as="geometry" />
        </mxCell>
        <mxCell id="Dz-6xlP6POjxRSHoRuvK-45" value="" style="curved=1;endArrow=classic;html=1;rounded=0;entryX=0;entryY=0.25;entryDx=0;entryDy=0;exitX=0.5;exitY=0;exitDx=0;exitDy=0;strokeColor=#FF0000;strokeWidth=2;dashed=1;" edge="1" parent="1" source="Dz-6xlP6POjxRSHoRuvK-3" target="Dz-6xlP6POjxRSHoRuvK-1">
          <mxGeometry width="50" height="50" relative="1" as="geometry">
            <mxPoint x="375" y="432.5" as="sourcePoint" />
            <mxPoint x="425" y="382.5" as="targetPoint" />
            <Array as="points">
              <mxPoint x="241" y="283" />
              <mxPoint x="303" y="238" />
            </Array>
          </mxGeometry>
        </mxCell>
        <mxCell id="Dz-6xlP6POjxRSHoRuvK-46" value="" style="curved=1;endArrow=classic;html=1;rounded=0;exitX=1;exitY=0.25;exitDx=0;exitDy=0;entryX=0;entryY=0.5;entryDx=0;entryDy=0;strokeColor=#FF0000;strokeWidth=2;dashed=1;" edge="1" parent="1" source="Dz-6xlP6POjxRSHoRuvK-1" target="Dz-6xlP6POjxRSHoRuvK-4">
          <mxGeometry width="50" height="50" relative="1" as="geometry">
            <mxPoint x="257" y="342" as="sourcePoint" />
            <mxPoint x="377" y="259" as="targetPoint" />
            <Array as="points">
              <mxPoint x="438" y="183" />
              <mxPoint x="550" y="142" />
            </Array>
          </mxGeometry>
        </mxCell>
        <mxCell id="Dz-6xlP6POjxRSHoRuvK-47" value="" style="curved=1;endArrow=classic;html=1;rounded=0;exitX=0;exitY=0.5;exitDx=0;exitDy=0;entryX=0.5;entryY=0;entryDx=0;entryDy=0;strokeColor=#FF0000;strokeWidth=2;dashed=1;" edge="1" parent="1" source="Dz-6xlP6POjxRSHoRuvK-4" target="Dz-6xlP6POjxRSHoRuvK-3">
          <mxGeometry width="50" height="50" relative="1" as="geometry">
            <mxPoint x="452" y="259" as="sourcePoint" />
            <mxPoint x="640" y="193" as="targetPoint" />
            <Array as="points">
              <mxPoint x="593" y="132" />
              <mxPoint x="373" y="158" />
            </Array>
          </mxGeometry>
        </mxCell>
        <mxCell id="Dz-6xlP6POjxRSHoRuvK-48" value="" style="shape=flexArrow;endArrow=classic;html=1;rounded=0;exitX=0.034;exitY=0.956;exitDx=0;exitDy=0;exitPerimeter=0;fillColor=#dae8fc;strokeColor=#6c8ebf;" edge="1" parent="1" source="Dz-6xlP6POjxRSHoRuvK-55">
          <mxGeometry width="50" height="50" relative="1" as="geometry">
            <mxPoint x="642" y="95" as="sourcePoint" />
            <mxPoint x="533" y="139" as="targetPoint" />
          </mxGeometry>
        </mxCell>
        <mxCell id="Dz-6xlP6POjxRSHoRuvK-52" value="" style="group" vertex="1" connectable="0" parent="1">
          <mxGeometry x="49" y="3" width="472" height="86" as="geometry" />
        </mxCell>
        <mxCell id="Dz-6xlP6POjxRSHoRuvK-50" value="&amp;nbsp; &amp;nbsp;192.168.1.3:[randomport] -&amp;gt; 192.168.1.11:9200" style="rounded=1;whiteSpace=wrap;html=1;align=left;fillColor=#ffe6cc;strokeColor=#d79b00;fontSize=10;" vertex="1" parent="Dz-6xlP6POjxRSHoRuvK-52">
          <mxGeometry y="26" width="472" height="60" as="geometry" />
        </mxCell>
        <mxCell id="Dz-6xlP6POjxRSHoRuvK-49" value="&lt;span style=&quot;text-align: left;&quot;&gt;사용자IP:[Randomport]&lt;/span&gt;&amp;nbsp;-&amp;gt; 192.168.1.10:9200" style="rounded=1;whiteSpace=wrap;html=1;fontSize=10;" vertex="1" parent="Dz-6xlP6POjxRSHoRuvK-52">
          <mxGeometry x="224" y="31.5" width="238.5" height="49" as="geometry" />
        </mxCell>
        <mxCell id="Dz-6xlP6POjxRSHoRuvK-51" value="TCP Packet (Reqeust)" style="text;html=1;align=center;verticalAlign=middle;resizable=0;points=[];autosize=1;strokeColor=none;fillColor=none;fontStyle=1" vertex="1" parent="Dz-6xlP6POjxRSHoRuvK-52">
          <mxGeometry x="-28" width="138" height="26" as="geometry" />
        </mxCell>
        <mxCell id="Dz-6xlP6POjxRSHoRuvK-53" value="" style="shape=flexArrow;endArrow=classic;html=1;rounded=0;fillColor=#ffe6cc;strokeColor=#d79b00;" edge="1" parent="1">
          <mxGeometry width="50" height="50" relative="1" as="geometry">
            <mxPoint x="381" y="92" as="sourcePoint" />
            <mxPoint x="463" y="169" as="targetPoint" />
          </mxGeometry>
        </mxCell>
        <mxCell id="Dz-6xlP6POjxRSHoRuvK-54" value="" style="group;fillColor=none;strokeColor=none;" vertex="1" connectable="0" parent="1">
          <mxGeometry x="626" width="221" height="86" as="geometry" />
        </mxCell>
        <mxCell id="Dz-6xlP6POjxRSHoRuvK-55" value="192.168.1.10:9200 -&amp;gt; 사용자IP:[Randomport]" style="rounded=1;whiteSpace=wrap;html=1;align=center;fillColor=#dae8fc;strokeColor=#6c8ebf;fontSize=10;" vertex="1" parent="Dz-6xlP6POjxRSHoRuvK-54">
          <mxGeometry y="26" width="215" height="60" as="geometry" />
        </mxCell>
        <mxCell id="Dz-6xlP6POjxRSHoRuvK-57" value="TCP Packet (Response)" style="text;html=1;align=center;verticalAlign=middle;resizable=0;points=[];autosize=1;strokeColor=none;fillColor=none;fontStyle=1" vertex="1" parent="Dz-6xlP6POjxRSHoRuvK-54">
          <mxGeometry x="-32" width="147" height="26" as="geometry" />
        </mxCell>
        <mxCell id="Dz-6xlP6POjxRSHoRuvK-58" value="" style="curved=1;endArrow=classic;html=1;rounded=0;entryX=0;entryY=0.25;entryDx=0;entryDy=0;exitX=0.423;exitY=0.029;exitDx=0;exitDy=0;strokeColor=#FF0000;strokeWidth=2;dashed=1;exitPerimeter=0;" edge="1" parent="1" source="Dz-6xlP6POjxRSHoRuvK-2" target="Dz-6xlP6POjxRSHoRuvK-1">
          <mxGeometry width="50" height="50" relative="1" as="geometry">
            <mxPoint x="257" y="343" as="sourcePoint" />
            <mxPoint x="377" y="259" as="targetPoint" />
            <Array as="points">
              <mxPoint x="285" y="134" />
              <mxPoint x="347" y="158" />
            </Array>
          </mxGeometry>
        </mxCell>
      </root>
    </mxGraphModel>
  </diagram>
</mxfile>
